<?xml version="1.0" encoding="utf-8"?>
<!-- Generator: Adobe Illustrator 15.1.0, SVG Export Plug-In . SVG Version: 6.00 Build 0)  -->
<!DOCTYPE svg PUBLIC "-//W3C//DTD SVG 1.1//EN" "http://www.w3.org/Graphics/SVG/1.1/DTD/svg11.dtd">
<svg version="1.1" id="irresponsible" xmlns="http://www.w3.org/2000/svg" xmlns:xlink="http://www.w3.org/1999/xlink" x="0px" y="0px"
	 width="100%" height="250px" viewBox="0 0 1600 250">
<g>
	<path fill="none" stroke="#000000" stroke-linecap="round" stroke-linejoin="round" d="M0.226,165.195
		c0.074,1.582,0.602,3.502,1.582,5.762c0.978,2.261,2.184,4.145,3.616,5.65c1.28,1.054,3.012,1.582,5.198,1.582
		c1.43-0.152,2.956-0.547,4.576-1.187c1.619-0.64,3.37-1.6,5.254-2.882c3.841-2.56,5.687-5.197,5.537-7.909
		c-0.076-1.204-0.565-2.636-1.469-4.294c-0.98-1.808-1.469-3.164-1.469-4.067c-0.076-1.506-0.095-3.125-0.057-4.858
		c0.037-1.732,0.131-3.653,0.283-5.763c0.15-2.108,0.339-4.048,0.565-5.819c0.226-1.77,0.413-3.407,0.565-4.915
		c0.226-1.507,0.489-3.446,0.791-5.819c0.3-2.373,0.678-5.178,1.13-8.418c1.28-11.977,2.616-23.125,4.011-33.446
		c1.393-10.319,2.842-19.961,4.35-28.926c0.15-1.13,0.639-2.918,1.469-5.367c0.828-2.447,1.995-5.555,3.503-9.322
		c3.012-7.531,4.481-12.277,4.407-14.237c-0.076-1.13-0.113-2.147-0.113-3.051s-0.039-1.958-0.113-3.164
		c-0.152-1.882-0.604-3.672-1.356-5.367c-0.754-1.695-1.884-3.294-3.39-4.802c-1.13-1.28-2.618-2.316-4.463-3.107
		c-1.847-0.791-3.522-1.147-5.028-1.073c-0.83,0-1.677,0.395-2.542,1.186c-0.867,0.791-1.658,1.714-2.373,2.769
		c-0.717,1.056-1.319,2.166-1.808,3.333c-0.491,1.169-0.773,2.204-0.848,3.107c-0.528,2.638-0.96,4.822-1.299,6.554
		c-0.339,1.734-0.584,3.126-0.734,4.181c-0.226,0.904-0.491,2.147-0.791,3.729c-0.302,1.582-0.641,3.503-1.017,5.763
		c-1.282,6.404-2.449,12.186-3.502,17.345c-1.056,5.16-1.997,9.813-2.825,13.955c-0.83,4.067-1.677,8.381-2.542,12.938
		c-0.867,4.559-1.791,9.398-2.769,14.52c-1.282,7.458-2.355,14.237-3.22,20.339c-0.867,6.102-1.601,11.564-2.203,16.384
		c-0.604,4.897-0.96,9.718-1.074,14.463C-0.057,155.703,0,160.449,0.226,165.195z"/>
	<path fill="none" stroke="#000000" stroke-linecap="round" stroke-linejoin="round" d="M79.208,147.004
		c0,4.82,0.15,9.284,0.452,13.389c0.3,4.107,0.828,7.666,1.582,10.678c0.752,3.014,1.732,5.387,2.938,7.119
		c1.204,1.732,2.673,2.636,4.407,2.711c1.054,0,2.165-0.244,3.333-0.734c1.167-0.49,2.241-1.072,3.22-1.751
		c0.978-0.678,1.808-1.412,2.486-2.203c0.678-0.791,1.091-1.525,1.243-2.204c0.226-0.978,0.356-2.014,0.396-3.106
		c0.037-1.091,0.056-2.241,0.056-3.446c0-2.034-0.132-4.162-0.395-6.385c-0.265-2.221-0.509-4.367-0.735-6.439
		c-0.226-2.072-0.377-3.992-0.452-5.764c-0.076-1.769,0.037-3.257,0.339-4.463c0.526-2.26,1.413-4.594,2.655-7.006
		c1.243-2.41,2.655-4.782,4.237-7.118c1.582-2.334,3.22-4.557,4.915-6.667c1.695-2.107,3.294-4.028,4.802-5.762
		c2.786-3.088,6.215-6.214,10.282-9.378c4.068-3.164,8.249-6.025,12.542-8.587c4.293-2.56,8.492-4.65,12.599-6.271
		c4.104-1.619,7.627-2.429,10.564-2.429c1.506,0.076,2.995,0.302,4.463,0.678c1.469,0.378,2.729,0.565,3.785,0.565
		c1.204,0,2.447-0.207,3.729-0.621c1.28-0.414,2.447-1.074,3.502-1.978c1.054-0.904,1.69-2.071,2.407-3.503
		c0.716-1.43,0.938-3.201,0.938-5.311v-0.113c0-0.904-0.017-1.995-0.543-3.277c-0.527-1.28-1.282-2.542-2.412-3.785
		c-1.13-1.243-2.455-2.316-4.149-3.221c-1.695-0.904-3.629-1.393-5.889-1.469c-3.994,0-8.058,0.734-12.238,2.204
		c-4.181,1.469-8.35,3.465-12.531,5.988c-4.181,2.525-8.299,5.443-12.367,8.757c-4.068,3.316-7.983,6.799-11.749,10.452
		c-3.768,3.654-7.326,7.364-10.676,11.129c-3.353,3.768-6.985,7.384-9.771,10.848c-0.076-0.452-0.675-0.941-0.675-1.469
		c0-0.526,0-1.091,0-1.695c0-1.808,0.656-3.898,0.846-6.271c0.187-2.373,0.657-4.65,0.846-6.836
		c0.187-2.184,0.517-4.125,0.706-5.819c0.187-1.695,0.353-2.842,0.353-3.446c0-0.452,0.186-1.28,0.487-2.486
		c0.3-1.204,0.676-2.56,1.091-4.067c0.414-1.506,0.874-3.107,1.365-4.802c0.489-1.695,0.965-3.277,1.417-4.746
		c0.452-1.469,0.811-2.749,1.075-3.842c0.263-1.091,0.397-1.826,0.397-2.204c0-0.678-0.112-1.449-0.338-2.316
		c-0.227-0.865-0.641-1.695-1.243-2.486c-0.604-0.791-1.413-1.469-2.43-2.034c-1.017-0.565-2.316-0.885-3.898-0.96
		c-1.508,0-2.958,0.396-4.351,1.187c-1.395,0.791-2.655,1.751-3.785,2.881s-2.09,2.298-2.881,3.502
		c-0.791,1.206-1.299,2.26-1.525,3.164c-0.226,0.83-0.452,2.09-0.678,3.785s-0.435,3.466-0.622,5.311
		c-0.189,1.847-0.358,3.635-0.508,5.367c-0.152,1.734-0.302,3.051-0.452,3.955c-0.302,2.26-0.584,4.746-0.847,7.458
		c-0.265,2.712-0.491,5.367-0.678,7.966c-0.189,2.599-0.339,4.991-0.452,7.175c-0.113,2.186-0.208,3.918-0.282,5.198
		c0,0.527-0.057,1.96-0.169,4.294c-0.113,2.335-0.226,4.954-0.339,7.853c-0.113,2.9-0.208,5.745-0.283,8.531
		C79.245,143.463,79.208,145.573,79.208,147.004z"/>
	<path fill="none" stroke="#000000" stroke-linecap="round" stroke-linejoin="round" d="M201.465,90.394
		c0,3.164,0.057,5.745,0.169,7.74c0.113,1.997,0.244,3.729,0.396,5.198c0.15,1.469,0.339,2.825,0.565,4.068
		c0.226,1.243,0.414,2.655,0.565,4.237c0.15,1.582,0.283,3.502,0.396,5.763c0.113,2.26,0.17,5.124,0.17,8.587
		c0,1.432-0.039,3.26-0.113,5.48c-0.076,2.223-0.169,4.652-0.282,7.288c-0.113,2.638-0.246,5.367-0.396,8.192
		c-0.152,2.824-0.283,5.556-0.396,8.191c-0.113,2.638-0.208,5.066-0.283,7.288c-0.076,2.223-0.113,4.05-0.113,5.479
		c0,1.356,0.056,3.203,0.169,5.537c0.113,2.336,0.433,4.65,0.96,6.949c0.526,2.297,1.336,4.293,2.429,5.988
		c1.091,1.695,2.617,2.543,4.576,2.543c1.356,0,2.466-0.133,3.333-0.396c0.865-0.264,1.638-0.621,2.316-1.072
		c0.678-0.453,1.317-1.018,1.921-1.695c0.602-0.678,1.317-1.469,2.146-2.373c1.13-6.854,2.486-13.313,4.068-19.378
		c1.582-6.063,3.503-11.808,5.763-17.231s4.952-10.564,8.079-15.424c3.125-4.858,6.873-9.509,11.243-13.954
		c5.574-5.65,10.941-9.887,16.102-12.712c5.159-2.825,10.187-4.989,15.084-6.497c2.034-0.678,4.085-1.299,6.158-1.864
		c2.071-0.565,3.936-1.187,5.593-1.864c1.656-0.678,2.994-1.413,4.011-2.204s1.525-1.751,1.525-2.881
		c0-1.732-0.508-3.181-1.525-4.35c-1.017-1.167-2.279-2.127-3.785-2.881c-1.508-0.752-3.127-1.28-4.859-1.582
		c-1.733-0.3-3.276-0.452-4.632-0.452c-6.932,0-13.446,1.638-19.548,4.915s-11.771,7.497-17.005,12.655
		c-5.236,5.161-9.982,10.904-14.237,17.231c-4.256,6.328-8.004,12.581-11.243,18.756c-0.076-2.56,0.037-5.743,0.339-9.548
		c0.3-3.803,0.659-7.757,1.074-11.864c0.413-4.104,0.809-8.135,1.187-12.09c0.376-3.955,0.565-7.362,0.565-10.226
		c0-1.43-0.265-2.842-0.791-4.237c-0.528-1.393-1.282-2.616-2.26-3.672c-0.98-1.054-2.147-1.921-3.503-2.599
		c-1.356-0.678-2.825-1.017-4.407-1.017c-1.356,0-2.731,0.321-4.124,0.96c-1.395,0.641-2.638,1.507-3.729,2.599
		c-1.093,1.093-1.978,2.373-2.655,3.842S201.465,88.812,201.465,90.394z"/>
	<path fill="none" stroke="#000000" stroke-linecap="round" stroke-linejoin="round" d="M1161.451,16.836
		c0-1.882-0.528-3.333-1.582-4.35c-1.056-1.017-2.279-1.751-3.673-2.204c-1.395-0.452-2.807-0.715-4.237-0.791
		c-1.432-0.074-2.524-0.113-3.276-0.113c-3.014,0-5.387,1.243-7.118,3.729c-1.734,2.486-2.6,5.424-2.6,8.813
		c0,1.658-0.188,3.09-0.564,4.294c-0.378,1.206-0.791,2.298-1.243,3.277c-0.452,0.979-0.866,1.921-1.243,2.825
		s-0.564,1.921-0.564,3.051s0.526,2.11,1.582,2.938c1.054,0.83,2.297,1.525,3.729,2.09c1.43,0.565,2.899,0.979,4.406,1.243
		c1.507,0.265,2.712,0.396,3.616,0.396s2.091-0.96,3.56-2.881s2.881-4.237,4.237-6.949c1.355-2.711,2.522-5.498,3.502-8.361
		C1160.96,20.979,1161.451,18.644,1161.451,16.836z"/>
	<path fill="none" stroke="#000000" stroke-linecap="round" stroke-linejoin="round" d="M1220.998,166.664
		c1.054,2.186,2.43,4.163,4.124,5.932c1.695,1.771,3.973,2.656,6.836,2.656c2.786,0,5.837-0.509,9.152-1.525
		c3.314-1.018,6.497-2.241,9.549-3.673c3.051-1.431,5.799-2.919,8.248-4.464c2.447-1.543,4.198-2.842,5.254-3.897
		c1.732-1.656,3.577-3.767,5.537-6.327c1.958-2.561,3.897-5.348,5.818-8.361c1.921-3.013,3.767-6.176,5.537-9.492
		c1.769-3.313,3.313-6.59,4.633-9.83c1.317-3.238,2.373-6.346,3.164-9.322c0.791-2.975,1.186-5.63,1.186-7.966
		c0-1.582-0.226-3.164-0.678-4.746s-1.017-2.994-1.694-4.237c-0.679-1.243-1.413-2.24-2.204-2.994
		c-0.79-0.752-1.525-1.13-2.203-1.13c-3.615,0-7.496,1.149-11.638,3.446c-4.144,2.299-8.344,5.33-12.599,9.096
		c-4.257,3.768-8.418,8.099-12.486,12.994c-4.067,4.898-7.796,9.906-11.186,15.029c-3.391,5.123-6.348,10.188-8.87,15.197
		C1223.953,158.059,1222.128,162.596,1220.998,166.664z"/>
	<path fill="none" stroke="#000000" stroke-linecap="round" stroke-linejoin="round" d="M1450.034,114.461
		c1.054-0.678,2.447-1.656,4.181-2.938c1.732-1.28,3.597-2.692,5.594-4.237c1.994-1.543,3.991-3.107,5.988-4.689
		c1.995-1.582,3.785-3.051,5.367-4.407c3.464-2.938,6.327-5.554,8.587-7.853c2.26-2.297,4.049-4.407,5.367-6.328
		c1.317-1.921,2.24-3.803,2.769-5.649c0.526-1.845,0.791-3.785,0.791-5.819c0-0.828-0.226-1.582-0.678-2.26
		c-0.452-0.678-1-1.243-1.639-1.695c-0.641-0.452-1.318-0.809-2.034-1.073c-0.717-0.263-1.338-0.396-1.864-0.396
		c-3.315,0-6.705,1.187-10.169,3.559c-3.466,2.373-6.705,5.669-9.718,9.887c-3.014,4.22-5.649,9.229-7.909,15.028
		C1452.407,101.393,1450.862,107.682,1450.034,114.461z"/>
	<path fill="none" stroke="#000000" stroke-linecap="round" stroke-linejoin="round" d="M320.898,117.173
		c3.916-2.938,7.532-5.65,10.847-8.136c3.314-2.486,6.402-5.045,9.265-7.683c1.808-1.656,3.653-3.446,5.537-5.367
		c1.882-1.921,3.596-3.936,5.141-6.045c1.543-2.108,2.768-4.293,3.672-6.553c0.904-2.26,1.317-4.557,1.243-6.893
		c-0.076-1.13-0.246-2.241-0.508-3.333c-0.265-1.091-0.661-2.051-1.187-2.881c-0.528-0.828-1.13-1.486-1.808-1.977
		c-0.678-0.489-1.469-0.735-2.373-0.735c-3.994,0.226-7.985,2.655-11.978,7.288c-3.994,4.633-7.759,10.754-11.299,18.361
		c-0.83,1.658-1.564,3.522-2.203,5.593c-0.641,2.073-1.243,4.181-1.808,6.328s-1.056,4.276-1.469,6.384
		C321.557,113.633,321.198,115.517,320.898,117.173z"/>
	<path fill="none" stroke="#000000" stroke-linecap="round" stroke-linejoin="round" d="M697.503,144.178
		c0,1.658,0.282,3.26,0.847,4.803c0.565,1.545,1.374,2.9,2.43,4.068c1.054,1.168,2.297,2.109,3.729,2.824
		c1.43,0.717,3.012,1.074,4.746,1.074c4.52,0,8.701-0.809,12.542-2.43c3.842-1.619,7.325-3.842,10.452-6.667
		c3.125-2.825,5.893-6.194,8.305-10.112c2.41-3.916,4.443-8.153,6.102-12.712c1.656-4.558,2.918-9.359,3.785-14.407
		c0.865-5.046,1.336-10.13,1.412-15.254c-0.452-1.506-1.338-2.975-2.655-4.407c-1.319-1.43-2.825-2.712-4.52-3.842
		s-3.485-2.051-5.367-2.768c-1.884-0.715-3.655-1.074-5.311-1.074c-1.356,0-2.675,0.226-3.955,0.678
		c-1.282,0.452-2.542,1.036-3.786,1.751c-1.243,0.717-2.429,1.508-3.559,2.373c-1.13,0.867-2.186,1.677-3.164,2.429
		c-2.938,2.486-5.745,5.971-8.418,10.452c-2.675,4.482-5.011,9.304-7.006,14.463c-1.997,5.16-3.598,10.302-4.802,15.424
		C698.105,135.969,697.503,140.412,697.503,144.178z"/>
	<path fill="none" stroke="#000000" stroke-linecap="round" stroke-linejoin="round" d="M303.384,131.297
		c0,14.164,3.333,24.746,10,31.752c6.667,7.005,16.025,10.508,28.079,10.508c5.574,0.076,11.356-0.752,17.344-2.486
		c5.989-1.731,11.995-4.198,18.022-7.4c6.026-3.201,11.995-7.006,17.909-11.412c5.913-4.407,11.6-9.152,17.062-14.237
		c5.461-5.085,10.621-10.452,15.48-16.102c3.786-4.401,7.276-8.803,10.49-13.205c0.483,0.795,1.008,1.599,1.601,2.414
		c1.393,1.921,3.107,3.842,5.141,5.763c2.034,1.921,4.294,3.672,6.78,5.254c7.833,4.973,13.427,9.266,16.779,12.881
		c3.351,3.616,5.028,6.855,5.028,9.719c0,3.992-1.319,7.965-3.955,11.92c-2.638,3.955-6.667,7.553-12.09,10.791
		c-2.638,1.582-5.463,3.184-8.475,4.803c-3.014,1.62-5.801,3.314-8.361,5.084c-2.562,1.77-4.708,3.633-6.441,5.594
		c-1.733,1.957-2.599,4.066-2.599,6.327c0,2.184,1.054,3.878,3.164,5.085c2.108,1.203,4.746,1.807,7.909,1.807
		c3.766,0,7.551-1.262,11.356-3.785c3.803-2.523,7.814-5.668,12.034-9.434c2.56-2.336,4.952-4.729,7.175-7.176
		c2.221-2.447,4.407-4.896,6.554-7.344c2.147-2.447,4.293-4.916,6.44-7.402c2.147-2.485,4.463-4.932,6.949-7.344
		c3.088-3.012,5.743-5.594,7.966-7.74c2.221-2.146,4.237-4.104,6.045-5.875c1.808-1.77,3.559-3.465,5.254-5.085
		c1.695-1.619,3.559-3.407,5.593-5.367c1.808-1.731,3.879-3.916,6.214-6.554c2.334-2.636,4.746-5.48,7.231-8.531
		c0.286-0.352,0.567-0.708,0.853-1.061c-0.002,0.053-0.003,0.103-0.005,0.156c-0.113,3.805-0.226,7.571-0.339,11.299
		c-0.113,3.729-0.208,6.724-0.283,8.983c-0.528,10.621-1.206,20.434-2.034,29.434c-0.83,9.003-1.771,17.382-2.825,25.142
		c-0.152,1.204-0.434,3.313-0.847,6.327c-0.415,3.012-0.848,6.365-1.299,10.057c-0.452,3.689-0.848,7.362-1.187,11.017
		c-0.339,3.653-0.508,6.724-0.508,9.209c0,1.13,0.356,2.165,1.073,3.107c0.715,0.94,1.582,1.788,2.599,2.542
		c1.017,0.752,2.09,1.337,3.22,1.752c1.13,0.412,2.108,0.621,2.938,0.621c2.786,0,5.046-0.924,6.78-2.768
		c1.732-1.848,2.825-3.975,3.276-6.385c1.28-6.629,2.127-13.938,2.542-21.92c0.413-7.986,1.035-17.063,1.864-27.232
		c0.452-5.121,1.111-9.83,1.978-14.123c0.865-4.294,1.751-8.21,2.655-11.752c2.034-4.217,4.255-8.624,6.667-13.22
		c2.41-4.594,4.972-9.17,7.684-13.729c2.712-4.557,5.593-9,8.644-13.333c3.051-4.331,6.308-8.342,9.774-12.034
		c1.43-1.506,3.333-3.333,5.706-5.48c2.373-2.147,4.933-4.198,7.684-6.158c2.749-1.958,5.498-3.633,8.248-5.028
		c2.749-1.393,5.179-2.09,7.288-2.09c3.39,0,6.215,1.544,8.475,4.632c2.26,3.09,3.39,7.231,3.39,12.429
		c0,1.206-0.169,2.694-0.508,4.463c-0.339,1.771-0.83,3.635-1.469,5.593c-0.641,1.959-1.375,3.917-2.204,5.875
		c-0.83,1.959-1.695,3.729-2.599,5.311c-1.356,2.336-2.825,4.766-4.407,7.288c-1.582,2.524-3.277,4.954-5.085,7.288
		c-1.808,2.336-3.768,4.482-5.875,6.44c-2.11,1.96-4.37,3.579-6.779,4.858c-1.282,0.604-2.807,1.206-4.576,1.809
		c-1.771,0.604-3.598,1.186-5.48,1.751c-1.884,0.565-3.748,1.13-5.593,1.694c-1.847,0.565-3.446,1.113-4.802,1.639
		c-1.282,0.452-2.599,0.98-3.955,1.582c-1.356,0.604-2.599,1.263-3.729,1.978c-1.13,0.717-2.053,1.525-2.769,2.429
		c-0.717,0.904-1.073,1.885-1.073,2.938c0,1.96,0.396,3.636,1.187,5.028c0.791,1.395,1.825,2.542,3.107,3.446
		c1.28,0.903,2.729,1.563,4.351,1.978c1.619,0.414,3.294,0.621,5.028,0.621c2.938,0,5.724-0.489,8.362-1.469
		c2.636-0.979,5.254-2.203,7.853-3.672c2.599-1.469,5.254-3.051,7.966-4.746s5.574-3.221,8.587-4.576
		c4.142-1.883,8.737-4.068,13.785-6.554c5.046-2.485,10.243-5.122,15.593-7.909c5.348-2.786,10.695-5.631,16.045-8.531
		c5.348-2.898,10.413-5.763,15.198-8.588c4.783-2.824,9.133-5.498,13.05-8.022c0.634-0.408,1.242-0.808,1.838-1.204
		c-1.426,3.116-2.575,5.956-3.42,8.491c-0.377,1.131-0.754,2.486-1.13,4.068c-0.378,1.582-0.734,3.239-1.073,4.971
		c-0.339,1.734-0.604,3.43-0.791,5.086c-0.189,1.657-0.283,3.051-0.283,4.18c0,4.37,0.433,8.551,1.3,12.543
		c0.865,3.993,2.127,7.514,3.785,10.564c1.656,3.051,3.69,5.48,6.102,7.288c2.41,1.808,5.159,2.712,8.249,2.712
		c4.896,0,9.622-0.396,14.181-1.187c4.557-0.791,9.096-2.165,13.615-4.124c4.218-1.883,7.947-3.842,11.187-5.876
		c3.238-2.034,6.158-4.198,8.757-6.497c2.599-2.297,4.933-4.803,7.005-7.514c2.071-2.712,4.085-5.725,6.045-9.039
		c0.752-1.205,1.469-2.73,2.146-4.576c0.678-1.846,1.3-3.767,1.865-5.764c0.565-1.994,1.017-3.972,1.356-5.932
		c0.339-1.958,0.508-3.615,0.508-4.972c0-3.088-0.265-6.082-0.791-8.983c-0.528-2.899-1.13-5.78-1.808-8.644
		c0.678,0.604,1.751,1.187,3.22,1.751c1.469,0.565,3.031,1.074,4.689,1.525c1.657,0.452,3.277,0.83,4.859,1.13
		c1.581,0.302,2.825,0.452,3.729,0.452c2.26,0,5.046-0.131,8.361-0.396c3.313-0.263,6.704-0.622,10.169-1.073
		c3.465-0.452,6.798-0.998,10-1.639c3.201-0.639,5.781-1.374,7.74-2.203c1.055-0.452,2.391-1.148,4.012-2.09
		c1.619-0.941,3.333-2.034,5.141-3.277c1.373-0.944,2.747-1.975,4.12-3.049c-0.454,1.75-0.893,3.515-1.296,5.309
		c-0.903,4.031-1.657,8.061-2.26,12.09c-0.604,4.03-1.129,7.892-1.582,11.581c-0.903,8.136-1.355,14.201-1.355,18.192
		c0,15.067,3.314,23.315,9.943,24.745c1.958-0.602,4.218-1.994,6.779-4.181c2.561-2.184,5.178-4.706,7.854-7.57
		c2.673-2.862,5.291-5.876,7.853-9.04c2.56-3.163,4.782-6.063,6.667-8.699c3.842-5.424,7.192-10.094,10.057-14.012
		c2.861-3.916,5.404-7.231,7.627-9.943c2.221-2.712,4.16-4.896,5.818-6.554c1.656-1.656,3.182-2.938,4.576-3.842
		c1.393-0.904,2.729-1.506,4.012-1.808c1.28-0.3,2.636-0.452,4.068-0.452c1.808,0,3.276,0.622,4.406,1.864
		c1.13,1.243,2.091,3.014,2.882,5.311c0.79,2.298,1.486,5.124,2.09,8.474c0.603,3.353,1.243,7.139,1.921,11.355
		c0.526,3.391,1.187,6.818,1.978,10.283s1.731,6.742,2.824,9.83c1.092,3.09,2.373,5.895,3.842,8.418
		c1.47,2.524,3.182,4.576,5.142,6.158c3.916,3.164,9.001,4.746,15.254,4.746c3.238,0,6.215-0.34,8.927-1.018
		s5.311-1.582,7.796-2.712c2.486-1.13,4.952-2.485,7.401-4.067c2.447-1.582,5.028-3.277,7.74-5.085
		c3.39-2.26,6.854-4.858,10.395-7.796c3.54-2.938,6.986-6.063,10.339-9.379c3.352-3.314,6.497-6.723,9.436-10.227
		c2.938-3.502,5.498-6.948,7.684-10.338c0.534-0.825,1.09-1.683,1.655-2.556c0.109,0.155,0.209,0.309,0.322,0.465
		c1.393,1.921,3.106,3.842,5.141,5.763s4.294,3.672,6.779,5.254c7.834,4.973,13.427,9.266,16.78,12.881
		c3.351,3.616,5.027,6.855,5.027,9.719c0,3.992-1.318,7.965-3.954,11.92c-2.638,3.955-6.667,7.553-12.091,10.791
		c-2.638,1.582-5.462,3.184-8.475,4.803c-3.014,1.62-5.801,3.314-8.361,5.084c-2.562,1.77-4.708,3.633-6.44,5.594
		c-1.733,1.957-2.599,4.066-2.599,6.327c0,2.184,1.054,3.878,3.164,5.085c2.107,1.203,4.745,1.807,7.909,1.807
		c3.766,0,7.551-1.262,11.355-3.785c3.804-2.523,7.814-5.668,12.034-9.434c2.56-2.336,4.952-4.729,7.175-7.176
		c2.221-2.447,4.407-4.896,6.554-7.344c2.146-2.447,4.294-4.916,6.44-7.402c2.146-2.485,4.463-4.932,6.949-7.344
		c3.088-3.012,5.743-5.594,7.966-7.74c2.221-2.146,4.237-4.104,6.045-5.875c1.809-1.77,3.56-3.465,5.254-5.085
		c1.695-1.619,3.56-3.407,5.594-5.367c1.808-1.731,3.879-3.916,6.215-6.554c2.334-2.636,4.745-5.48,7.231-8.531
		c2.485-3.051,4.933-6.139,7.344-9.266c1.072-1.391,2.085-2.734,3.053-4.043c-0.001,0.011-0.001,0.021-0.002,0.032
		c-0.151,1.582-0.339,3.014-0.564,4.294c-0.452,2.335-0.887,5.443-1.3,9.322c-0.415,3.88-0.811,8.098-1.187,12.655
		c-0.378,4.559-0.678,9.191-0.903,13.898c-0.227,4.709-0.339,9.059-0.339,13.051c0,4.293,0.488,8.305,1.469,12.033
		c0.978,3.729,2.466,6.969,4.463,9.718c1.995,2.749,4.444,4.915,7.345,6.497c2.898,1.582,6.271,2.373,10.112,2.373
		c4.521,0,9.266-0.887,14.237-2.656s10.263-4.502,15.876-8.191c5.61-3.689,11.581-8.379,17.909-14.067
		c6.327-5.687,13.068-12.446,20.226-20.282c2.107-2.26,4.387-4.803,6.836-7.627c1.471-1.697,2.897-3.396,4.301-5.094
		c-0.616,3.774-1.185,7.397-1.702,10.856c-0.717,4.784-1.375,9.135-1.977,13.05c-0.679,4.746-1,8.362-0.961,10.848
		c0.037,2.486,0.207,4.37,0.509,5.65c0.226,0.829,0.564,1.451,1.017,1.863c0.452,0.416,0.998,0.734,1.639,0.961
		c0.639,0.227,1.336,0.415,2.09,0.564c0.753,0.152,1.544,0.379,2.373,0.679l-1.13,6.779c-0.076,2.034,0.489,3.916,1.695,5.649
		c1.204,1.732,2.636,3.201,4.293,4.407c1.656,1.204,3.314,2.146,4.972,2.825c1.656,0.678,2.899,1.017,3.729,1.017
		c4.972,0,9.811-0.717,14.52-2.147c4.707-1.432,9.209-3.389,13.502-5.875l0.113,0.113c0,0.074,1.147-0.548,3.446-1.865
		c2.297-1.318,5.271-3.07,8.927-5.254c3.652-2.184,7.776-4.689,12.372-7.514c4.594-2.825,9.209-5.744,13.842-8.758
		c4.633-3.012,9.076-5.969,13.333-8.869c4.255-2.898,7.854-5.518,10.791-7.854c5.876-4.67,11.187-9.472,15.932-14.406
		c3.933-4.088,7.482-8.136,10.69-12.147c-0.021,0.3-0.047,0.606-0.068,0.905c-0.302,4.219-0.452,8.021-0.452,11.412
		c0,8.361,0.848,15.311,2.542,20.847c1.695,5.536,3.859,9.982,6.497,13.333c2.637,3.354,5.555,5.726,8.758,7.119
		c3.2,1.395,6.308,2.09,9.321,2.09c6.854,0,14.633-2.203,23.333-6.609c8.7-4.407,18.774-10.979,30.226-19.718
		c2.108-1.582,4.218-3.276,6.327-5.085c0.79-0.678,1.539-1.342,2.267-1.998c1.487,7.813,4.305,14.172,8.468,19.061
		c6.478,7.609,15.63,11.412,27.457,11.412c5.046,0,10.282-0.791,15.706-2.373s10.771-3.746,16.045-6.497
		c5.272-2.749,10.396-5.989,15.367-9.718s9.528-7.776,13.672-12.146c3.616-3.842,6.402-7.305,8.361-10.395
		c1.958-3.088,2.938-5.95,2.938-8.588c0-2.26-0.189-3.879-0.565-4.859c-0.378-0.978-0.979-1.469-1.808-1.469
		c-1.432,0-3.353,1.319-5.763,3.955c-4.294,4.822-8.908,9.305-13.842,13.446c-4.935,4.144-10.019,7.722-15.254,10.734
		c-5.236,3.014-10.584,5.367-16.045,7.062c-5.462,1.695-10.829,2.543-16.102,2.543c-4.144,0-7.553-0.678-10.226-2.034
		c-2.675-1.356-4.802-3.068-6.384-5.142c-1.582-2.07-2.675-4.35-3.277-6.836c-0.604-2.485-0.903-4.858-0.903-7.118
		c0-1.054,0.525-1.938,1.582-2.655c1.054-0.715,2.107-1.373,3.163-1.978c7.758-4.745,14.803-9.509,21.13-14.293
		c6.327-4.783,11.751-9.565,16.271-14.35c4.521-4.783,8.022-9.528,10.509-14.237c2.485-4.707,3.729-9.359,3.729-13.955
		c0-2.184-0.435-4.407-1.299-6.667c-0.867-2.26-2.13-4.294-3.786-6.102c-1.657-1.808-3.691-3.294-6.102-4.463
		c-2.411-1.167-5.123-1.751-8.135-1.751c-4.22,0-8.118,0.604-11.695,1.808c-3.578,1.206-6.875,2.768-9.887,4.689
		c-3.014,1.921-5.763,4.087-8.248,6.497c-2.486,2.412-4.746,4.785-6.779,7.119c-3.24,3.842-6.084,7.985-8.531,12.429
		c-2.449,4.445-4.482,9.039-6.102,13.785c-1.621,4.746-2.845,9.548-3.673,14.406c-0.829,4.859-1.242,9.625-1.242,14.293
		c0,0.07,0.003,0.138,0.003,0.208c-0.583,0.543-1.197,1.108-1.867,1.713c-1.169,1.057-2.469,2.146-3.898,3.277
		c-5.35,4.143-10.245,7.74-14.689,10.791c-4.445,3.051-8.569,5.593-12.372,7.627c-3.805,2.033-7.364,3.541-10.678,4.52
		c-3.316,0.979-6.517,1.469-9.604,1.469c-1.884,0-3.768-0.357-5.649-1.074c-1.884-0.715-3.579-2.127-5.085-4.236
		c-1.508-2.108-2.731-5.028-3.673-8.758c-0.942-3.729-1.412-8.604-1.412-14.632c0-2.862,0.074-5.989,0.227-9.378
		c0.149-3.39,0.356-6.854,0.621-10.396c0.263-3.54,0.564-7.099,0.904-10.678c0.339-3.577,0.695-6.967,1.073-10.169
		c0.376-3.201,0.791-6.119,1.242-8.757c0.452-2.636,0.865-4.82,1.243-6.554c1.13-4.52,2.561-9.678,4.294-15.48
		c1.732-5.799,3.446-11.562,5.142-17.288c1.694-5.724,3.144-11.13,4.35-16.214c1.204-5.085,1.808-9.17,1.808-12.26
		c0-1.356-0.095-2.599-0.282-3.729c-0.188-1.13-0.584-2.127-1.187-2.994c-0.604-0.865-1.432-1.525-2.485-1.978
		c-1.056-0.452-2.449-0.678-4.181-0.678c-1.582,0-3.146,0.66-4.689,1.978c-1.545,1.319-2.994,2.977-4.351,4.972
		c-1.355,1.997-2.562,4.144-3.615,6.44c-1.056,2.299-1.884,4.426-2.486,6.384c-0.604,2.11-1.225,4.502-1.864,7.175
		c-0.641,2.675-1.299,5.5-1.978,8.475c-0.678,2.977-1.338,5.971-1.977,8.983c-0.642,3.014-1.226,5.914-1.752,8.7
		c-0.604,3.315-1.243,7.025-1.921,11.13c-0.678,4.106-1.355,8.457-2.034,13.051c-0.602,4.077-1.169,8.241-1.71,12.465
		c-0.221,0.365-0.436,0.726-0.663,1.094c-3.541,5.725-7.909,11.638-13.106,17.74c-5.198,6.102-11.243,12.279-18.136,18.531
		c-6.893,6.253-14.633,12.354-23.22,18.305c2.26-3.842,4.274-7.645,6.045-11.412c1.77-3.767,3.258-7.383,4.463-10.848
		c1.204-3.465,2.128-6.723,2.769-9.774c0.64-3.051,0.961-5.78,0.961-8.192c0-3.164-0.472-6.271-1.413-9.322
		c-0.942-3.051-2.26-5.78-3.954-8.192c-1.695-2.41-3.712-4.35-6.046-5.819c-2.335-1.469-4.935-2.204-7.796-2.204
		c-4.52,0-9.587,1.564-15.197,4.689c-5.613,3.126-11.319,7.327-17.119,12.599c-5.801,5.273-11.487,11.355-17.062,18.248
		c-5.575,6.892-10.508,14.144-14.802,21.751c1.808-8.436,3.577-16.063,5.311-22.881c1.731-6.816,3.37-12.938,4.915-18.361
		c1.543-5.423,2.994-10.263,4.351-14.52c1.355-4.255,2.56-8.003,3.615-11.243c1.28-3.992,2.655-8.022,4.124-12.09
		c1.47-4.068,2.843-8.135,4.125-12.203c1.279-4.068,2.354-8.04,3.22-11.921c0.865-3.878,1.3-7.588,1.3-11.129
		c0-7.608-2.073-11.413-6.215-11.413c-1.658,0-3.202,0.265-4.633,0.791c-1.432,0.528-2.787,1.564-4.067,3.107
		c-1.282,1.545-2.581,3.768-3.898,6.667c-1.318,2.901-2.769,6.723-4.351,11.469c-0.903,2.638-1.921,6.064-3.051,10.282
		c-1.13,4.22-2.279,8.813-3.446,13.785c-1.168,4.972-2.354,10.132-3.559,15.48c-1.206,5.35-2.299,10.471-3.277,15.367
		c-0.681,3.399-1.337,6.759-1.98,10.098c-1.937,2.241-3.725,4.28-5.364,6.117c-2.186,2.449-4.257,4.765-6.215,6.949
		c-1.959,2.186-3.954,4.389-5.988,6.61c-2.034,2.223-4.257,4.616-6.666,7.174c-7.158,7.684-13.39,14.125-18.701,19.322
		c-5.311,5.197-10.112,9.379-14.406,12.543c-4.294,3.163-8.23,5.405-11.808,6.723c-3.578,1.318-7.175,1.977-10.791,1.977
		c-1.432,0-2.787-0.564-4.067-1.694c-1.282-1.13-2.393-2.692-3.333-4.688c-0.943-1.996-1.695-4.369-2.26-7.119
		c-0.565-2.749-0.848-5.743-0.848-8.982c0-3.992,0.263-8.174,0.791-12.543c0.525-4.367,1.167-8.681,1.921-12.938
		c0.752-4.255,1.6-8.361,2.542-12.316c0.941-3.955,1.788-7.551,2.542-10.791c0.753-3.238,1.394-6.006,1.921-8.305
		c0.526-2.297,0.791-3.898,0.791-4.802c0-3.54-0.866-5.969-2.599-7.288c-1.733-1.317-4.181-1.978-7.345-1.978
		c-2.033,0-3.86,0.697-5.479,2.09c-1.621,1.395-3.014,3.014-4.181,4.859c-0.468,0.738-0.876,1.472-1.253,2.204
		c-0.807,0.629-1.703,1.413-2.702,2.373c-2.9,2.788-6.271,6.271-10.112,10.452c-3.842,4.181-7.986,8.664-12.43,13.446
		c-4.445,4.784-8.853,9.209-13.22,13.277c-1.809,1.733-3.579,3.353-5.311,4.858c-1.734,1.508-3.297,2.808-4.689,3.897
		c-1.395,1.094-2.638,1.961-3.729,2.6c-1.094,0.641-1.903,0.961-2.43,0.961c-0.378,0-0.848-0.34-1.412-1.018
		c-0.565-0.678-1.3-1.543-2.204-2.599c-0.903-1.054-1.977-2.241-3.22-3.56c-1.243-1.316-2.731-2.616-4.464-3.898
		c-3.089-2.26-6.084-4.48-8.982-6.666c-2.9-2.184-5.612-4.368-8.136-6.554c-2.524-2.184-4.765-4.424-6.723-6.723
		c-1.96-2.297-3.503-4.689-4.633-7.175c0.074-1.13,0.621-2.354,1.639-3.672c1.017-1.317,2.316-2.729,3.897-4.237
		c1.582-1.506,3.277-3.068,5.085-4.689c1.808-1.619,3.483-3.294,5.028-5.028c1.543-1.732,2.825-3.503,3.842-5.311
		c1.017-1.808,1.525-3.653,1.525-5.537c0-0.978-0.245-1.938-0.734-2.881c-0.491-0.941-1.13-1.789-1.921-2.542
		c-0.791-0.752-1.695-1.356-2.712-1.808c-1.017-0.452-2.091-0.678-3.221-0.678c-1.056,0-2.354,0.415-3.897,1.243
		c-1.545,0.83-3.146,1.903-4.803,3.22c-1.657,1.319-3.239,2.788-4.745,4.407c-1.508,1.621-2.788,3.22-3.842,4.802
		c-1.96,2.938-3.599,5.556-4.915,7.853c-1.319,2.299-2.373,4.52-3.164,6.667c-0.791,2.146-1.339,4.313-1.639,6.497
		c-0.188,1.366-0.312,2.863-0.382,4.464c-1.125,1.177-2.293,2.466-3.517,3.897c-1.998,2.335-4.031,4.765-6.102,7.288
		c-2.072,2.524-3.974,4.615-5.706,6.271c-4.445,4.293-8.757,8.249-12.938,11.865c-4.181,3.615-8.23,6.762-12.146,9.434
		c-3.918,2.676-7.646,4.766-11.187,6.271c-3.542,1.508-6.932,2.26-10.169,2.26c-4.22,0-7.458-1.017-9.718-3.051
		c-2.26-2.033-3.993-4.689-5.197-7.966c-1.206-3.276-2.017-6.985-2.43-11.13c-0.415-4.142-0.848-8.322-1.3-12.542
		c-0.527-4.972-1.225-9.528-2.09-13.672c-0.867-4.142-2.091-7.701-3.673-10.678c-1.581-2.975-3.672-5.311-6.271-7.006
		s-5.858-2.542-9.774-2.542c-3.691,0-7.062,0.621-10.112,1.864c-3.051,1.243-5.933,2.938-8.645,5.084
		c-2.712,2.147-5.33,4.652-7.854,7.514c-2.523,2.864-5.066,5.952-7.627,9.265c-3.465,4.446-6.686,8.514-9.66,12.204
		c-2.977,3.691-5.707,7.081-8.192,10.169c-4.821,6.102-8.287,9.266-10.396,9.491c-0.451-1.43-0.678-2.824-0.678-4.18
		c0-1.959,0.17-4.162,0.509-6.611c0.339-2.446,0.752-4.952,1.243-7.513c0.488-2.56,1.017-5.085,1.582-7.571
		c0.564-2.486,1.072-4.746,1.525-6.779c0.602-2.486,1.203-4.689,1.807-6.61c0.603-1.921,1.168-3.709,1.695-5.367
		c0.526-1.656,0.941-3.277,1.243-4.858c0.3-1.582,0.452-3.277,0.452-5.085c0-2.938-0.472-5.234-1.412-6.893
		c-0.943-1.656-2.017-2.486-3.221-2.486c-0.98,0-1.94,0.057-2.881,0.17c-0.943,0.113-1.848,0.377-2.713,0.791
		c-0.866,0.415-1.714,1.056-2.541,1.921c-0.83,0.867-1.621,2.053-2.373,3.56c-0.363,0.744-0.713,1.506-1.054,2.279
		c-1.297,0.367-2.78,0.791-4.483,1.28c-2.485,0.717-5.18,1.488-8.078,2.316c-2.901,0.83-5.65,1.601-8.249,2.316
		c-2.599,0.717-4.878,1.338-6.836,1.864c-1.96,0.528-3.202,0.867-3.729,1.017c-1.96,0.378-4.106,0.717-6.44,1.017
		c-2.336,0.302-4.709,0.547-7.119,0.735c-2.412,0.188-4.784,0.321-7.118,0.396c-2.336,0.076-4.521,0.113-6.554,0.113
		c-1.808,0-3.861-0.922-6.158-2.769c-2.298-1.845-4.596-3.878-6.893-6.102c-2.298-2.221-4.502-4.255-6.61-6.102
		c-2.11-1.845-3.881-2.768-5.311-2.768c-1.13,0-2.147,0.152-3.051,0.452c-0.904,0.302-1.658,0.452-2.26,0.452
		c-0.452,0-0.791-0.187-1.017-0.565c-0.604-0.678-1.13-1.356-1.582-2.034c-0.452-0.678-0.96-1.317-1.525-1.921
		c-0.565-0.602-1.243-1.091-2.034-1.469c-0.791-0.376-1.828-0.565-3.107-0.565c-3.842,0-7.684,0.98-11.525,2.938
		c-3.842,1.959-7.533,4.559-11.073,7.796c-3.341,3.057-6.542,6.513-9.614,10.339c-1.013,0.124-1.954,0.51-2.815,1.187
		c-1.056,0.83-2.449,1.847-4.181,3.051c-5.726,3.994-11.734,8.098-18.022,12.316c-6.291,4.22-12.694,8.288-19.209,12.204
		c-6.516,3.917-13.033,7.57-19.547,10.96c-6.517,3.39-12.864,6.254-19.04,8.588c2.938-2.862,5.763-5.988,8.475-9.379
		c2.712-3.39,5.103-6.91,7.175-10.564c2.071-3.653,3.729-7.362,4.972-11.13c1.243-3.766,1.826-7.532,1.751-11.299
		c0.074-4.896-0.621-9.283-2.09-13.164c-1.469-3.879-3.333-7.175-5.593-9.887c-2.26-2.712-4.802-4.746-7.627-6.102
		c-2.825-1.356-5.556-1.995-8.192-1.921c-3.842,0.076-7.477,0.621-10.904,1.638c-3.429,1.017-6.742,2.449-9.943,4.294
		c-3.203,1.847-6.384,4.03-9.548,6.553c-3.164,2.525-6.366,5.293-9.604,8.305c-5.048,4.746-10.095,10.716-15.141,17.909
		c-5.048,7.194-10.208,15.537-15.48,25.028c-0.452,0-0.678-1.091-0.678-3.276c0-2.561,0.283-5.385,0.848-8.475
		c0.565-3.088,1.187-6.232,1.864-9.435c0.678-3.201,1.299-6.328,1.864-9.378s0.848-5.893,0.848-8.531
		c0-1.204-0.265-2.447-0.791-3.729c-0.528-1.28-1.243-2.429-2.147-3.446c-0.904-1.017-1.94-1.845-3.107-2.486
		c-1.169-0.639-2.393-0.96-3.672-0.96c-5.937,0-9.589,6.06-10.971,18.139c-0.479,0.515-0.964,1.041-1.458,1.578
		c-3.842,4.181-7.985,8.664-12.429,13.446c-4.445,4.784-8.852,9.209-13.22,13.277c-1.808,1.733-3.579,3.353-5.311,4.858
		c-1.734,1.508-3.296,2.808-4.689,3.897c-1.395,1.094-2.638,1.961-3.729,2.6c-1.093,0.641-1.903,0.961-2.429,0.961
		c-0.378,0-0.848-0.34-1.413-1.018s-1.299-1.543-2.203-2.599c-0.904-1.054-1.978-2.241-3.22-3.56
		c-1.243-1.316-2.731-2.616-4.463-3.898c-3.09-2.26-6.084-4.48-8.983-6.666c-2.901-2.184-5.613-4.368-8.136-6.554
		c-2.524-2.184-4.765-4.424-6.723-6.723c-1.96-2.297-3.503-4.689-4.633-7.175c0.074-1.13,0.622-2.354,1.638-3.672
		c1.017-1.317,2.316-2.729,3.898-4.237c1.582-1.506,3.277-3.068,5.084-4.689c1.808-1.619,3.483-3.294,5.028-5.028
		c1.543-1.732,2.825-3.503,3.842-5.311c1.017-1.808,1.525-3.653,1.525-5.537c0-0.978-0.246-1.938-0.734-2.881
		c-0.491-0.941-1.13-1.789-1.921-2.542c-0.791-0.752-1.695-1.356-2.712-1.808c-1.017-0.452-2.09-0.678-3.22-0.678
		c-1.056,0-2.355,0.415-3.898,1.243c-1.545,0.83-3.146,1.903-4.802,3.22c-1.658,1.319-3.24,2.788-4.746,4.407
		c-1.508,1.621-2.788,3.22-3.842,4.802c-1.959,2.938-3.598,5.556-4.915,7.853c-1.319,2.299-2.373,4.52-3.164,6.667
		c-0.791,2.146-1.338,4.313-1.639,6.497c-0.292,2.117-0.439,4.522-0.448,7.204c-0.437,0.36-0.89,0.745-1.36,1.158l-6.102,6.102
		c-5.124,5.124-10.282,10-15.48,14.633s-10.999,9.285-17.401,13.954c-3.466,2.485-7.175,4.915-11.13,7.288
		c-3.955,2.373-8.042,4.482-12.259,6.328c-4.22,1.846-8.514,3.333-12.881,4.463c-4.37,1.13-8.7,1.695-12.994,1.695
		c-7.684,0-13.729-1.902-18.135-5.707c-4.407-3.803-6.61-9.358-6.61-16.666c5.573-3.615,10.338-7.063,14.293-10.339
		c3.955-3.276,7.551-6.271,10.791-8.983c5.122-4.294,9.492-8.305,13.107-12.034c3.616-3.729,6.534-7.345,8.757-10.847
		c2.221-3.503,3.803-6.93,4.746-10.282c0.941-3.351,1.336-6.76,1.187-10.226c-0.152-3.088-0.848-5.913-2.09-8.475
		c-1.243-2.56-2.92-5.045-5.028-7.458c-0.678-0.828-1.582-1.525-2.712-2.09s-2.298-1.034-3.502-1.412
		c-1.206-0.376-2.336-0.639-3.39-0.791c-1.056-0.15-1.884-0.226-2.486-0.226c-2.486,0.152-4.954,0.604-7.401,1.356
		c-2.449,0.754-4.822,1.771-7.119,3.051c-2.298,1.282-4.482,2.75-6.553,4.407c-2.073,1.658-3.938,3.39-5.593,5.198
		c-8.813,10.321-15.047,21.055-18.7,32.203C305.21,107.984,303.384,119.473,303.384,131.297z"/>
</g>
</svg>
