<?xml version="1.0" encoding="utf-8"?>
<!-- Generator: Adobe Illustrator 15.1.0, SVG Export Plug-In . SVG Version: 6.00 Build 0)  -->
<!DOCTYPE svg PUBLIC "-//W3C//DTD SVG 1.1//EN" "http://www.w3.org/Graphics/SVG/1.1/DTD/svg11.dtd">
<svg version="1.1" id="wednesday" xmlns="http://www.w3.org/2000/svg" xmlns:xlink="http://www.w3.org/1999/xlink" x="0px" y="0px"
	 width="100%" height="250px" viewBox="0 0 1600 250">
<g>
	<path fill="none" stroke="#000000" stroke-linecap="round" stroke-linejoin="round" d="M0,32.881c0,3.24,1.091,8.813,3.277,16.723
		c1.054,3.917,1.921,7.082,2.599,9.491c0.678,2.412,1.13,4.144,1.356,5.198c3.238,15.895,6.401,30.471,9.491,43.728
		c3.088,13.26,6.063,25.387,8.926,36.384c0.15,0.378,0.526,1.733,1.13,4.067c0.602,2.336,1.469,5.65,2.599,9.943
		c1.13,4.294,2.203,8.099,3.22,11.412c1.017,3.316,2.014,6.178,2.994,8.588c1.882,4.745,4.125,8.661,6.723,11.751
		c2.599,3.088,5.706,4.633,9.322,4.633c1.656,0,4.972-4.106,9.943-12.316c5.046-8.209,10.583-18.04,16.61-29.49
		c3.012-5.724,6.063-11.506,9.152-17.345c3.088-5.837,6.215-11.808,9.378-17.909c6.402-12.052,10.809-19.848,13.22-23.389
		c2.334,5.047,4.896,10.734,7.684,17.061c2.786,6.328,5.837,13.372,9.152,21.13c3.314,7.76,6.119,14.276,8.418,19.548
		c2.297,5.273,4.161,9.341,5.593,12.203c2.786,5.875,5.687,10.584,8.7,14.124c3.012,3.542,6.328,5.311,9.943,5.311
		c1.204,0,2.899-0.489,5.084-1.469c2.184-0.979,3.577-2.185,4.181-3.616c1.43-3.464,3.125-7.418,5.084-11.864
		c1.958-4.443,4.181-9.415,6.667-14.914c2.486-5.498,4.763-10.603,6.836-15.311c2.071-4.707,3.936-9.097,5.593-13.164
		c3.39-7.983,6.893-17.475,10.508-28.474c1.882-5.424,3.803-11.826,5.763-19.209c1.958-7.381,3.803-15.367,5.537-23.954
		c1.808-8.662,3.201-16.402,4.181-23.22c0.978-6.816,1.469-12.26,1.469-16.327c0-2.712-0.717-5.385-2.146-8.022
		C216.833,1.395,214.384,0,210.844,0c-1.508,0-3.203,0.943-5.084,2.825c-1.884,1.884-2.825,3.315-2.825,4.293
		c-0.452,10.02-1.658,20.979-3.616,32.881c-1.959,11.903-4.858,24.821-8.7,38.756c-3.842,13.937-8.438,27.57-13.785,40.903
		c-5.35,13.333-11.525,25.914-18.531,37.739c-2.788-3.615-8.664-16.082-17.627-37.4c-4.52-10.621-8.381-19.661-11.582-27.118
		c-3.203-7.458-5.782-13.37-7.74-17.74c-3.994-8.737-7.344-13.107-10.056-13.107c-0.904,0-1.808,0.189-2.712,0.565
		c-0.904,0.378-1.751,0.847-2.542,1.412c-0.791,0.565-1.507,1.206-2.146,1.921c-0.641,0.717-1.112,1.413-1.413,2.09
		c-3.24,7.458-5.989,13.729-8.249,18.813s-4.031,9.059-5.311,11.921c-1.282,2.787-2.92,6.084-4.915,9.887
		c-1.997,3.805-4.389,8.154-7.175,13.051c-2.788,4.821-6.291,10.829-10.508,18.021c-4.219,7.195-9.191,15.612-14.915,25.254
		c-0.754-2.034-1.621-4.746-2.599-8.135c-0.98-3.391-2.09-7.515-3.333-12.373c-1.243-4.858-2.638-10.526-4.181-17.006
		c-1.545-6.478-3.259-13.858-5.141-22.146c-1.959-8.285-3.691-15.649-5.198-22.089c-1.508-6.44-2.844-12.09-4.011-16.949
		c-1.168-4.859-2.166-8.944-2.994-12.26c-0.83-3.314-1.545-5.989-2.147-8.022C20,39.962,17.701,34.841,14.915,30.621
		c-2.788-4.368-5.047-6.554-6.779-6.554c-1.808,0-3.616,0.943-5.424,2.825C0.904,28.852,0,30.847,0,32.881z"/>
	<path fill="none" stroke="#000000" stroke-linecap="round" stroke-linejoin="round" d="M907.218,156.607
		c0,7.006,2.372,10.508,7.118,10.508c4.218,0,10.018-2.446,17.4-7.344c7.608-5.197,13.483-9.867,17.627-14.011
		c4.294-4.521,7.871-8.323,10.734-11.413c2.862-3.088,5.122-5.573,6.779-7.457c1.656-1.882,3.182-3.992,4.576-6.327
		c1.394-2.335,2.729-4.896,4.012-7.684c-1.96-0.452-3.446-1.431-4.463-2.938c-1.018-1.506-1.525-3.2-1.525-5.084
		c0-1.507,0.226-3.729,0.678-6.667c0.452-2.938,0.678-5.198,0.678-6.78c0-1.356-0.358-2.881-1.073-4.576
		c-0.717-1.695-1.639-3.277-2.769-4.746s-2.393-2.712-3.785-3.729c-1.395-1.017-2.769-1.525-4.124-1.525
		c-3.994,0-9.417,4.181-16.271,12.542c-3.465,4.293-6.648,8.4-9.548,12.316c-2.9,3.918-5.556,7.796-7.966,11.638
		c-2.638,4.145-4.878,7.949-6.723,11.413c-1.847,3.465-3.409,6.553-4.689,9.265C909.439,143.576,907.218,151.109,907.218,156.607z"
		/>
	<path fill="none" stroke="#000000" stroke-linecap="round" stroke-linejoin="round" d="M1073.43,152.088
		c0,2.336,0.848,4.106,2.543,5.311c1.693,1.206,3.445,1.808,5.254,1.808c1.881,0,4.33-1.034,7.344-3.106
		c3.012-2.071,6.271-4.82,9.773-8.249c3.504-3.427,7.08-7.345,10.734-11.751c3.652-4.407,7.043-8.944,10.17-13.616
		c3.125-4.669,5.836-9.265,8.135-13.784c2.297-4.521,3.859-8.625,4.689-12.316c0.227-1.13,0.49-2.466,0.791-4.011
		c0.301-1.543,0.582-3.088,0.848-4.633c0.264-1.543,0.488-2.975,0.678-4.293c0.188-1.317,0.283-2.293,0.283-2.896
		c0-0.15-0.113-0.58-0.34-1.258c-0.227-0.678-0.564-1.403-1.016-2.12c-0.453-0.715-1-1.277-1.639-1.842
		c-0.641-0.565-1.34-0.829-2.092-0.829h-0.225c-2.789,1-5.764,1.207-8.928,2.75c-3.162,1.545-6.516,3.968-10.055,7.169
		c-3.543,3.202-7.271,7.292-11.188,12.337c-3.918,5.048-7.984,11.169-12.203,18.401c-1.281,2.186-2.693,4.567-4.236,7.166
		c-1.545,2.599-3.014,5.458-4.408,8.583c-1.395,3.127-2.561,6.458-3.502,9.998C1073.898,144.445,1073.43,148.172,1073.43,152.088z"
		/>
	<path fill="none" stroke="#000000" stroke-linecap="round" stroke-linejoin="round" d="M700.441,123.953
		c3.916-2.938,7.531-5.65,10.848-8.136c3.313-2.486,6.401-5.046,9.266-7.684c1.807-1.656,3.652-3.446,5.536-5.367
		c1.882-1.921,3.597-3.936,5.142-6.045c1.543-2.108,2.768-4.293,3.672-6.553c0.904-2.26,1.316-4.557,1.242-6.893
		c-0.076-1.13-0.245-2.241-0.508-3.333c-0.266-1.091-0.66-2.051-1.187-2.881c-0.528-0.828-1.13-1.486-1.808-1.977
		c-0.678-0.489-1.469-0.735-2.373-0.735c-3.994,0.226-7.985,2.655-11.978,7.288c-3.993,4.633-7.759,10.754-11.3,18.361
		c-0.829,1.658-1.563,3.522-2.203,5.594c-0.641,2.072-1.242,4.181-1.808,6.327c-0.565,2.147-1.056,4.276-1.469,6.384
		C701.099,120.413,700.741,122.297,700.441,123.953z"/>
	<path fill="none" stroke="#000000" stroke-linecap="round" stroke-linejoin="round" d="M238.867,123.953
		c3.916-2.938,7.532-5.65,10.847-8.136c3.314-2.486,6.402-5.046,9.266-7.684c1.808-1.656,3.653-3.446,5.537-5.367
		c1.882-1.921,3.596-3.936,5.141-6.045c1.543-2.108,2.768-4.293,3.672-6.553c0.904-2.26,1.317-4.557,1.243-6.893
		c-0.076-1.13-0.246-2.241-0.508-3.333c-0.265-1.091-0.661-2.051-1.187-2.881c-0.528-0.828-1.13-1.486-1.808-1.977
		c-0.678-0.489-1.469-0.735-2.373-0.735c-3.994,0.226-7.985,2.655-11.978,7.288c-3.994,4.633-7.759,10.754-11.299,18.361
		c-0.83,1.658-1.564,3.522-2.203,5.594c-0.641,2.072-1.243,4.181-1.808,6.327c-0.565,2.147-1.056,4.276-1.469,6.384
		C239.525,120.413,239.167,122.297,238.867,123.953z"/>
	<path fill="none" stroke="#000000" stroke-linecap="round" stroke-linejoin="round" d="M351.52,151.862
		c0,7.005,2.373,10.508,7.118,10.508c4.218,0,10.018-2.447,17.401-7.345c7.458-5.046,13.333-9.717,17.627-14.011
		c4.294-4.443,7.871-8.229,10.734-11.355c2.862-3.125,5.122-5.631,6.779-7.515c3.238-3.766,6.102-8.436,8.588-14.011
		c-1.96-0.452-3.446-1.43-4.463-2.938c-1.017-1.506-1.525-3.201-1.525-5.085c0-1.506,0.226-3.729,0.678-6.667
		c0.452-2.938,0.678-5.197,0.678-6.779c0-1.356-0.358-2.881-1.074-4.576c-0.717-1.695-1.638-3.277-2.768-4.746
		c-1.13-1.469-2.393-2.712-3.785-3.729c-1.395-1.017-2.769-1.525-4.125-1.525c-3.994,0-9.417,4.181-16.271,12.542
		c-3.465,4.219-6.649,8.305-9.548,12.259c-2.9,3.955-5.556,7.853-7.966,11.695c-2.562,4.22-4.785,8.042-6.667,11.469
		c-1.884,3.429-3.466,6.497-4.746,9.209C353.741,138.755,351.52,146.288,351.52,151.862z"/>
	<path fill="none" stroke="#000000" stroke-linecap="round" stroke-linejoin="round" d="M221.353,138.077
		c0,14.163,3.333,24.745,10,31.75c6.667,7.006,16.025,10.509,28.079,10.509c5.574,0.076,11.356-0.752,17.344-2.486
		c5.989-1.731,11.995-4.198,18.022-7.4c6.026-3.201,11.995-7.006,17.909-11.412c5.913-4.407,11.6-9.152,17.062-14.237
		c2.83-2.635,5.576-5.35,8.244-8.137c-0.672,1.884-1.339,3.774-1.973,5.707c-1.13,3.316-1.695,8.362-1.695,15.142
		c0,4.972,1.167,9.83,3.502,14.575c2.334,4.746,5.724,7.119,10.169,7.119c16.195,0,31.788-6.854,46.779-20.564
		c14.989-13.634,27.192-29.227,36.61-46.779c0.376,3.994,0.715,7.627,1.017,10.904c0.3,3.276,0.678,6.384,1.13,9.321
		c0.452,2.938,1.091,5.802,1.921,8.588c0.828,2.788,1.921,5.649,3.277,8.587c2.862,5.876,6.628,9.869,11.299,11.978
		c2.26,1.056,4.181,1.582,5.763,1.582c3.088,0,6.365-0.848,9.83-2.543c3.464-1.694,6.893-3.785,10.283-6.271
		c3.39-2.485,6.667-5.159,9.83-8.022c3.164-2.862,5.989-5.461,8.475-7.797c2.938-2.712,6.045-5.836,9.322-9.378
		c3.277-3.54,6.44-7.212,9.491-11.017c1.447-1.805,2.84-3.6,4.186-5.388c0.03,0.563,0.051,1.159,0.051,1.828
		c0,2.638-0.076,5.802-0.226,9.491c-0.152,3.692-0.226,7.609-0.226,11.751c0,4.672,0.169,9.379,0.508,14.125
		c0.339,4.745,1.035,9.021,2.09,12.824c1.054,3.805,2.542,6.912,4.463,9.321c1.921,2.412,4.463,3.616,7.627,3.616
		c3.164,0,6.232-1.054,9.209-3.164c2.975-2.107,5.875-4.896,8.7-8.361c2.825-3.464,5.537-7.4,8.136-11.808
		c2.599-4.406,5.122-8.926,7.57-13.559c2.447-4.633,4.82-9.152,7.119-13.56c2.297-4.406,4.481-8.342,6.553-11.808
		c2.071-3.464,4.085-6.252,6.045-8.361c1.958-2.108,3.842-3.164,5.649-3.164c0.526,0,0.96,0.83,1.299,2.486
		c0.339,1.657,0.752,3.842,1.243,6.554c0.489,2.711,1.11,5.801,1.864,9.265c0.752,3.466,1.769,7.006,3.051,10.621
		c1.28,3.616,2.899,7.158,4.859,10.622c1.958,3.466,4.407,6.554,7.344,9.265c2.938,2.712,6.441,4.898,10.508,6.554
		c4.068,1.658,8.813,2.486,14.237,2.486c5.046,0,10.056-0.526,15.028-1.582c4.972-1.054,9.792-2.523,14.463-4.407
		c4.67-1.882,9.133-4.085,13.391-6.609c1.843-1.093,3.605-2.225,5.314-3.381c0.76,11.493,4.032,20.286,9.826,26.374
		c6.666,7.006,16.025,10.509,28.078,10.509c5.574,0.076,11.355-0.752,17.344-2.486c5.989-1.731,11.996-4.198,18.023-7.4
		c6.025-3.201,11.994-7.006,17.908-11.412c5.914-4.407,11.6-9.152,17.063-14.237c5.461-5.085,10.621-10.452,15.48-16.102
		c2.521-2.933,4.911-5.865,7.18-8.798c0.595,1.599,1.299,3.178,2.143,4.73c1.43,2.562,3.144,5.443,5.141,8.644
		c1.995,3.203,4.274,6.724,6.836,10.565c5.197,7.609,7.797,12.654,7.797,15.141c0,4.972-1.885,8.889-5.65,11.751
		c-3.768,2.863-9.417,5.802-16.949,8.813c-7.683,3.09-13.332,5.949-16.948,8.587c-3.691,2.786-5.536,6.628-5.536,11.525
		c0,1.732,1.279,3.088,3.842,4.068c2.485,0.978,4.67,1.469,6.553,1.469c5.498,0,12.955-3.164,22.373-9.491
		c4.746-3.164,9.565-6.724,14.463-10.678c4.896-3.955,10.057-8.153,15.48-12.599c2.26-1.883,4.932-4.068,8.021-6.554
		c3.088-2.486,6.271-5.085,9.549-7.797c3.276-2.712,6.514-5.479,9.717-8.305c3.201-2.825,6.119-5.518,8.758-8.079
		c2.354-2.293,4.453-4.346,6.324-6.18c-1.466,3.773-2.872,7.624-4.178,11.604c-1.13,3.315-1.695,8.361-1.695,15.141
		c0,5.048,1.167,9.906,3.503,14.576c2.334,4.746,5.724,7.118,10.17,7.118c16.119,0,31.712-6.854,46.778-20.564
		c14.989-13.633,27.192-29.226,36.61-46.778c0.752,7.835,1.694,14.915,2.824,21.242c1.13,6.328,3.051,12.393,5.763,18.192
		c2.786,5.801,6.553,9.793,11.299,11.977c2.334,1.056,4.254,1.582,5.762,1.582c3.842,0,8.965-2.184,15.367-6.554
		c3.238-2.184,6.555-4.633,9.943-7.344c3.391-2.712,6.893-5.763,10.51-9.152c3.615-3.391,7.041-6.724,10.281-10
		c0.551-0.558,1.09-1.119,1.629-1.68c-0.227,0.692-0.453,1.385-0.668,2.075c-2.223,7.157-3.334,13.521-3.334,19.096
		c0,3.39,0.621,6.403,1.865,9.039c1.242,2.638,2.881,4.858,4.914,6.666c2.035,1.809,4.387,3.184,7.063,4.125
		c2.672,0.942,5.441,1.412,8.305,1.412c1.279,0,3.258-0.715,5.932-2.147c2.674-1.43,5.611-3.276,8.814-5.536
		c3.201-2.26,6.4-4.764,9.604-7.514c3.201-2.749,5.969-5.441,8.305-8.079c0.678-0.752,1.6-1.882,2.77-3.39
		c1.166-1.506,2.484-3.164,3.955-4.972c1.469-1.808,2.955-3.673,4.463-5.593c1.506-1.921,2.918-3.653,4.236-5.198
		c1.318-1.543,2.467-2.806,3.447-3.785c0.977-0.979,1.619-1.469,1.92-1.469c0.453,0,0.865,0.435,1.244,1.299
		c0.375,0.867,0.715,1.921,1.016,3.164s0.602,2.599,0.904,4.068c0.301,1.469,0.639,2.768,1.018,3.897
		c0.678,2.11,1.639,4.144,2.881,6.102c1.242,1.96,2.672,3.673,4.293,5.142c1.619,1.469,3.352,2.655,5.197,3.56
		c1.846,0.903,3.711,1.355,5.594,1.355c4.369,0,9.283-1.393,14.746-4.181c5.461-2.786,10.941-6.667,16.439-11.639
		c5.273-4.745,10.49-9.773,15.65-15.084c1.584-1.63,3.141-3.33,4.686-5.063c-0.686,2.567-1.313,5.088-1.861,7.548
		c-0.867,3.881-1.545,7.497-2.033,10.848c-0.492,3.353-0.734,6.158-0.734,8.418c0,2.788,0.639,5.669,1.92,8.644
		c1.281,2.977,3.145,5.688,5.594,8.136c2.447,2.448,5.461,4.463,9.039,6.045c3.576,1.582,7.701,2.373,12.373,2.373
		c3.012,0,6.215-0.583,9.604-1.752c3.391-1.167,6.799-2.616,10.227-4.35c3.428-1.732,6.74-3.597,9.943-5.594
		c3.201-1.994,6.102-3.859,8.701-5.593c2.598-1.731,4.762-3.181,6.496-4.35c1.732-1.167,2.861-1.752,3.391-1.752
		c0.602,0,1.016,0.246,1.242,0.734c0.227,0.491,0.34,1.112,0.34,1.864c0,0.604-0.396,2.167-1.188,4.689
		c-0.791,2.524-1.826,5.763-3.107,9.718c-1.281,3.954-2.807,8.456-4.576,13.502s-3.598,10.396-5.48,16.045
		c-1.281,3.69-2.654,7.382-4.123,11.073c-1.469,3.69-2.846,7.193-4.125,10.509c-1.281,3.313-2.355,6.327-3.221,9.039
		s-1.299,4.933-1.299,6.667c0,1.054,0.188,2.146,0.564,3.276s0.904,2.146,1.582,3.051s1.506,1.656,2.486,2.26
		c0.979,0.603,2.07,0.904,3.277,0.904c3.012,0,5.311-0.734,6.893-2.203c1.582-1.47,2.805-3.297,3.672-5.48
		c0.865-2.186,1.543-4.539,2.033-7.063c0.49-2.524,1.074-4.878,1.752-7.062c0.979-3.24,2.051-6.779,3.221-10.621
		c1.166-3.842,2.391-7.797,3.672-11.864c1.279-4.068,2.561-8.155,3.842-12.26c1.279-4.105,2.523-8.04,3.729-11.808
		c1.203-3.767,2.316-7.288,3.334-10.565c1.016-3.276,1.863-6.082,2.541-8.417c0.678-2.334,1.525-5.085,2.543-8.249
		s2.107-6.534,3.277-10.112c1.166-3.577,2.41-7.213,3.729-10.904c1.316-3.689,2.598-7.249,3.842-10.678
		c1.242-3.427,2.41-6.571,3.502-9.435c1.092-2.862,2.016-5.272,2.77-7.231c0.299-0.904,0.678-2.071,1.129-3.503
		c0.453-1.43,0.865-2.881,1.244-4.35c0.375-1.469,0.695-2.825,0.959-4.068c0.264-1.243,0.396-2.127,0.396-2.655
		c0-1.43-0.076-2.825-0.227-4.181c-0.152-1.356-0.508-2.56-1.074-3.616c-0.564-1.054-1.412-1.921-2.541-2.599
		c-1.131-0.678-2.713-1.017-4.746-1.017c-1.734,0-3.521,0.943-5.367,2.825c-1.848,1.884-3.373,4.822-4.576,8.813
		c-0.98,3.315-2.109,7.062-3.391,11.243s-2.561,8.23-3.842,12.146c-1.281,3.918-2.523,7.439-3.729,10.564
		c-1.205,3.127-2.26,5.293-3.164,6.497c-2.033,2.788-4.406,5.274-7.117,7.458c-2.713,2.186-5.35,4.03-7.91,5.536
		c-2.863,1.582-5.781,3.372-8.756,5.367c-2.977,1.997-6.027,3.861-9.152,5.594c-3.127,1.733-6.311,3.183-9.549,4.35
		c-3.24,1.169-6.516,1.752-9.83,1.752c-1.057,0-2.393-0.188-4.012-0.565c-1.621-0.376-3.221-0.997-4.803-1.864
		c-1.582-0.865-2.938-2.015-4.066-3.446c-1.131-1.43-1.695-3.237-1.695-5.424c0-2.409,0.131-5.064,0.395-7.966
		c0.264-2.898,0.771-5.554,1.525-7.966c1.281-4.896,2.844-9.565,4.689-14.011c1.846-4.444,3.617-8.455,5.311-12.034
		c1.695-3.577,3.145-6.627,4.352-9.152c1.203-2.523,1.807-4.312,1.807-5.367c0-1.356-0.096-2.636-0.281-3.842
		c-0.189-1.204-0.566-2.26-1.131-3.164c-0.564-0.904-1.318-1.619-2.26-2.147c-0.943-0.526-2.166-0.791-3.672-0.791
		c-1.658,0-3.316,0.604-4.973,1.808c-1.656,1.206-3.502,3.316-5.535,6.328c-0.961,1.394-1.914,3.042-2.859,4.895
		c-6.801,6.808-13.457,13.649-19.965,20.528c-6.631,7.006-13.637,13.446-21.018,19.322c-3.316,2.638-6.254,4.689-8.813,6.158
		c-2.563,1.469-5.125,2.203-7.684,2.203c-2.111,0-3.955-1.054-5.537-3.164c-1.582-2.107-2.881-4.726-3.898-7.853
		c-1.018-3.125-1.771-6.421-2.26-9.887c-0.49-3.464-0.734-6.554-0.734-9.266c0-4.142,0.32-7.814,0.961-11.017
		c0.639-3.201,1.336-6.063,2.09-8.587c0.752-2.523,1.449-4.746,2.09-6.667c0.639-1.921,0.961-3.672,0.961-5.254
		c0-0.752-0.396-1.543-1.186-2.373c-0.791-0.828-1.715-1.676-2.77-2.542c-1.055-0.865-2.072-1.712-3.051-2.542
		c-0.98-0.828-1.621-1.582-1.92-2.26c-0.529-1.054-1.057-2.09-1.582-3.107c-0.529-1.017-1.131-1.938-1.809-2.768
		c-0.678-0.828-1.488-1.506-2.43-2.034c-0.941-0.526-2.053-0.791-3.332-0.791c-6.855,0-13.543,1.338-20.057,4.011
		c-6.518,2.675-12.75,6.836-18.701,12.485c-5.123,4.897-10.057,10.754-14.801,17.57c-2.229,3.202-4.326,6.472-6.314,9.798
		c-5.621,5.878-11.912,12.009-18.883,18.394c-8.063,7.383-16.424,13.937-25.084,19.66c-8.74,5.649-16.197,8.475-22.373,8.475
		c-1.734,0-3.051-2.825-3.955-8.475s-1.469-11.486-1.695-17.514c-0.225-5.95-0.338-11.11-0.338-15.479
		c0-5.498,0.299-10.921,0.904-16.271c0.602-5.348,1.393-11.073,2.371-17.175c0.074-0.526,0.301-1.865,0.68-4.011
		c0.375-2.147,0.791-4.481,1.242-7.006c0.451-2.523,0.865-4.915,1.242-7.175s0.604-3.766,0.678-4.52
		c1.205-6.627,2.316-12.333,3.334-17.118c1.018-4.783,1.826-8.794,2.43-12.034c0.602-3.238,1.074-5.875,1.412-7.91
		c0.34-2.034,0.508-3.502,0.508-4.407c0-1.656-1.168-2.938-3.502-3.841c-2.186-0.979-4.406-1.469-6.666-1.469
		c-4.52,0-7.684,1.545-9.492,4.633c-0.754,1.206-1.356,3.824-1.809,7.853c-0.451,4.031-0.903,8.983-1.355,14.858
		c-0.226,2.864-0.415,5.35-0.565,7.458c-0.151,2.11-0.302,3.842-0.451,5.198c-0.452,5.124-0.961,9.926-1.525,14.407
		c-0.565,4.482-1.187,8.757-1.864,12.824c-0.679,4.068-1.47,8.005-2.373,11.808c-0.904,3.805-1.921,7.553-3.051,11.243
		c0-3.088-0.642-7.382-1.921-12.881c-1.282-5.198-3.164-9.754-5.649-13.672c-2.486-3.916-5.5-5.875-9.04-5.875
		c-10.169,0-17.966,1.469-23.39,4.406c-4.369,2.26-9.039,6.028-14.011,11.299c-4.897,5.274-9.266,10.547-13.107,15.819
		c-0.713,0.987-1.41,1.976-2.098,2.967c-1.209,1.307-2.84,2.988-4.907,5.055c-2.563,2.562-5.273,5.311-8.136,8.248
		c-2.863,2.938-6.479,6.367-10.848,10.283c-4.219,3.842-8.438,7.477-12.655,10.903c-4.22,3.429-8.118,6.44-11.694,9.039
		c-3.579,2.6-6.667,4.672-9.266,6.215c-2.6,1.545-4.426,2.316-5.48,2.316c-0.754,0-1.168-0.15-1.242-0.452
		c-0.754-1.279-1.885-3.294-3.391-6.045c-1.508-2.749-3.353-5.856-5.537-9.322c-2.186-3.464-4.105-6.703-5.762-9.717
		c-1.658-3.012-3.127-5.8-4.406-8.361c-2.412-5.272-3.616-9.868-3.616-13.785c0.827-0.828,1.901-1.845,3.22-3.051
		c1.317-1.204,2.919-2.599,4.803-4.181c1.958-1.656,3.689-3.22,5.197-4.689c1.506-1.469,2.786-2.881,3.842-4.237
		c2.184-2.862,3.277-5.8,3.277-8.813c0-7.833-3.316-11.751-9.943-11.751c-1.809-0.074-3.918,0.641-6.328,2.147
		c-2.412,1.508-4.784,3.522-7.118,6.045c-2.336,2.525-4.503,5.387-6.497,8.587c-1.997,3.203-3.446,6.384-4.351,9.548
		c-1.884,5.575-2.825,10.885-2.825,15.931c0,0.551,0.025,1.098,0.051,1.644l-4.909,4.91c-5.124,5.124-10.282,10-15.479,14.633
		c-5.198,4.633-11,9.285-17.401,13.954c-3.466,2.486-7.175,4.916-11.13,7.288c-3.955,2.373-8.041,4.483-12.26,6.328
		c-4.219,1.847-8.514,3.333-12.881,4.463c-4.369,1.13-8.7,1.694-12.994,1.694c-7.684,0-13.729-1.901-18.135-5.705
		c-4.407-3.804-6.61-9.359-6.61-16.667c5.573-3.615,10.339-7.062,14.294-10.339c3.954-3.276,7.551-6.271,10.79-8.982
		c5.122-4.294,9.491-8.306,13.107-12.034s6.534-7.345,8.757-10.847c2.221-3.503,3.803-6.93,4.746-10.282
		c0.94-3.351,1.336-6.76,1.186-10.226c-0.151-3.088-0.848-5.913-2.09-8.475c-1.243-2.56-2.92-5.045-5.028-7.458
		c-0.678-0.828-1.582-1.525-2.712-2.09s-2.299-1.034-3.502-1.412c-1.207-0.376-2.336-0.639-3.391-0.791
		c-1.056-0.15-1.884-0.226-2.486-0.226c-2.485,0.152-4.953,0.604-7.4,1.356c-2.449,0.754-4.822,1.771-7.119,3.051
		c-2.298,1.282-4.482,2.75-6.553,4.407c-2.072,1.658-3.938,3.39-5.594,5.198c-8.813,10.321-15.047,21.055-18.699,32.203
		c-2.76,8.417-4.473,17.027-5.148,25.83c-3.355,2.004-6.93,3.734-10.728,5.187c-3.842,1.469-7.609,2.694-11.3,3.672
		c-3.691,0.979-7.137,1.695-10.338,2.146c-3.203,0.452-5.819,0.679-7.853,0.679c-1.733,0-3.672-0.15-5.819-0.452
		c-2.147-0.3-4.257-0.695-6.328-1.187c-2.073-0.489-3.974-1.091-5.706-1.808c-1.734-0.715-3.09-1.487-4.068-2.316
		c-2.562-1.958-4.746-4.407-6.554-7.345c-1.808-2.938-3.277-6.44-4.407-10.509c-1.13-4.067-1.94-8.718-2.429-13.954
		c-0.491-5.234-0.734-11.129-0.734-17.683c0-1.13-0.132-2.277-0.396-3.446c-0.265-1.167-0.622-2.221-1.073-3.164
		c-0.452-0.941-1.017-1.695-1.695-2.26c-0.678-0.565-1.432-0.847-2.26-0.847c-5.047,0-9.511,0.923-13.39,2.768
		c-3.88,1.847-7.477,4.672-10.791,8.475c-3.316,3.805-6.536,8.55-9.661,14.237c-3.126,5.688-6.423,12.373-9.887,20.057
		c-1.884,4.144-3.785,8.061-5.706,11.751c-1.921,3.691-3.805,6.932-5.649,9.717c-1.847,2.788-3.692,5.011-5.537,6.667
		c-1.847,1.658-3.672,2.485-5.48,2.485c-0.904,0-1.356-1.845-1.356-5.536c0-2.712,0.188-6.102,0.565-10.169
		c0.376-4.068,0.791-8.362,1.243-12.882c0.452-4.52,0.865-9.02,1.243-13.502c0.376-4.481,0.565-8.455,0.565-11.921
		c0-2.862-0.282-5.215-0.847-7.062c-0.565-1.845-1.319-3.294-2.26-4.35c-0.943-1.054-2.017-1.769-3.22-2.147
		c-0.568-0.177-1.154-0.309-1.754-0.403c-0.019-0.07-0.033-0.152-0.054-0.219c-0.152-0.489-0.452-0.734-0.904-0.734
		c-0.152,0-0.698,0.095-1.639,0.283c-0.943,0.188-1.525,0.396-1.751,0.621c-0.492,0.527-0.999,1.077-1.513,1.638
		c-0.023,0.021-0.046,0.035-0.069,0.057c-0.546,0.514-1.068,1.107-1.573,1.751c-2.365,2.626-4.945,5.577-7.75,8.87
		c-4.106,4.822-8.418,9.643-12.938,14.462c-1.884,2.034-4.011,4.257-6.384,6.667c-2.373,2.411-4.841,4.802-7.401,7.175
		c-2.562,2.373-5.104,4.615-7.627,6.724c-2.524,2.109-4.878,3.88-7.062,5.311c-2.186,1.432-4.068,2.655-5.649,3.672
		c-1.582,1.017-3.051,1.864-4.407,2.542c-1.356,0.679-2.655,1.169-3.898,1.47c-1.243,0.302-2.655,0.451-4.237,0.451
		c-1.13,0-2.11-0.94-2.938-2.824c-0.83-1.882-1.545-4.255-2.147-7.119c-0.604-2.861-1.074-5.988-1.413-9.378
		s-0.622-6.61-0.847-9.661c-0.226-3.051-0.378-5.687-0.452-7.909c-0.076-2.221-0.113-3.634-0.113-4.237
		c0-5.498,0.3-10.921,0.904-16.271c0.602-5.348,1.393-11.073,2.373-17.175c0.526-3.088,1.111-6.515,1.751-10.282
		c0.639-3.766,1.336-7.909,2.09-12.429c1.204-6.553,2.316-12.24,3.333-17.062c1.017-4.82,1.826-8.851,2.429-12.09
		c0.602-3.238,1.074-5.875,1.413-7.91c0.339-2.034,0.508-3.502,0.508-4.407c0-1.656-1.169-2.938-3.503-3.842
		c-2.26-0.978-4.482-1.469-6.667-1.469c-4.595,0-7.759,1.545-9.491,4.633c-0.754,1.206-1.356,3.824-1.808,7.853
		c-0.452,4.031-0.904,8.983-1.355,14.858c-0.226,2.864-0.415,5.35-0.565,7.458c-0.152,2.11-0.302,3.842-0.452,5.198
		c-0.452,5.124-0.96,9.926-1.525,14.406c-0.565,4.483-1.187,8.757-1.864,12.825c-0.678,4.068-1.469,8.005-2.373,11.808
		c-0.904,3.805-1.921,7.553-3.051,11.243c0-3.314-0.641-7.608-1.921-12.881c-1.206-5.046-3.089-9.604-5.649-13.672
		c-2.486-3.916-5.5-5.876-9.04-5.876c-10.169,0-17.966,1.469-23.39,4.407c-4.37,2.26-9.039,6.028-14.011,11.299
		c-2.486,2.638-4.822,5.273-7.006,7.91c-2.186,2.638-4.219,5.273-6.102,7.909c-4.83,6.687-9.051,13.478-12.684,20.368l-3.813,3.813
		c-5.124,5.124-10.282,10-15.48,14.633s-10.999,9.285-17.401,13.954c-3.465,2.486-7.175,4.916-11.13,7.288
		c-3.955,2.373-8.042,4.483-12.259,6.328c-4.22,1.847-8.514,3.333-12.881,4.463c-4.37,1.13-8.7,1.694-12.994,1.694
		c-7.684,0-13.729-1.901-18.135-5.705s-6.61-9.359-6.61-16.667c5.573-3.615,10.338-7.062,14.293-10.339
		c3.955-3.276,7.551-6.271,10.791-8.982c5.122-4.294,9.492-8.306,13.107-12.034s6.534-7.345,8.757-10.847
		c2.221-3.503,3.803-6.93,4.746-10.282c0.941-3.351,1.336-6.76,1.187-10.226c-0.152-3.088-0.848-5.913-2.09-8.475
		c-1.243-2.56-2.92-5.045-5.028-7.458c-0.678-0.828-1.582-1.525-2.712-2.09s-2.298-1.034-3.502-1.412
		c-1.206-0.376-2.336-0.639-3.39-0.791c-1.056-0.15-1.884-0.226-2.486-0.226c-2.486,0.152-4.954,0.604-7.401,1.356
		c-2.449,0.754-4.822,1.771-7.119,3.051c-2.298,1.282-4.482,2.75-6.553,4.407c-2.073,1.658-3.938,3.39-5.593,5.198
		c-8.813,10.321-15.047,21.055-18.7,32.203C223.178,114.764,221.353,126.252,221.353,138.077z"/>
</g>
</svg>
